<svg width="426" height="394" viewBox="0 0 426 394" fill="none" xmlns="http://www.w3.org/2000/svg" xmlns:xlink="http://www.w3.org/1999/xlink">
<rect width="426" height="394" fill="#707070"/>
<circle cx="207" cy="201" r="179" fill="#FFFDFD"/>
<path d="M113.556 318.813C137.587 312.271 153.217 291.286 147.87 271.643C142.523 252.001 118.412 241.834 94.3801 248.377C70.3484 254.919 54.7182 275.904 60.0656 295.547C65.4131 315.189 89.5239 325.356 113.556 318.813Z" fill="#D9D9D9" stroke="#575656" stroke-width="2"/>
<path d="M110.403 307.235C121.116 304.318 129.969 298.426 135.609 291.212C141.249 283.997 143.711 275.401 141.47 267.167C139.228 258.934 132.748 252.772 124.229 249.412C115.71 246.052 105.092 245.46 94.3801 248.377C83.6679 251.293 74.8148 257.185 69.1747 264.399C63.5345 271.614 61.0725 280.21 63.314 288.444C65.5555 296.678 72.0353 302.84 80.5544 306.2C89.0732 309.56 99.6912 310.151 110.403 307.235Z" fill="#D9D9D9" stroke="#575656" stroke-width="2"/>
<path d="M110.272 306.752C120.891 303.861 129.647 298.026 135.215 290.904C140.782 283.782 143.178 275.346 140.987 267.299C138.796 259.252 132.455 253.193 124.046 249.877C115.637 246.56 105.13 245.968 94.5114 248.859C83.893 251.75 75.1361 257.586 69.5686 264.707C64.0011 271.829 61.6058 280.266 63.7964 288.313C65.9871 296.36 72.3286 302.418 80.7378 305.735C89.1469 309.051 99.6537 309.643 110.272 306.752Z" fill="#D9D9D9" stroke="#575656"/>
<ellipse cx="101.909" cy="277.937" rx="31" ry="23.5" transform="rotate(-15.229 101.909 277.937)" fill="#8A8A8A"/>
<ellipse cx="104.011" cy="285.656" rx="9" ry="7.5" transform="rotate(-15.229 104.011 285.656)" fill="#D9D9D9"/>
<path d="M307.936 164.738C313.874 137.008 297.887 107.71 262.864 107.69H208.246L199.217 150.165H240.334C248.708 150.165 254.056 157.039 252.277 165.416C250.5 173.792 242.269 180.406 233.893 180.406H192.204L248.019 283.608H306.468L268.829 214.297C278.768 208.801 301.759 193.593 307.936 164.738Z" fill="#6FBF54"/>
<path d="M140.434 243.004L149.521 266.359C149.521 266.359 163.264 293.47 173.434 229.004C183.604 164.539 193.744 176.95 193.744 176.95C149.521 123.004 142.699 206.03 140.434 243.004Z" fill="#6FBF54"/>
<path d="M163.149 152.742C176.125 152.742 186.645 142.278 186.645 129.372C186.645 116.464 176.125 106 163.149 106C150.173 106 139.653 116.464 139.653 129.372C139.653 142.278 150.173 152.742 163.149 152.742Z" fill="#6FBF54"/>

</svg>
